<svg width="40" height="25" viewBox="0 0 40 25" fill="none" xmlns="http://www.w3.org/2000/svg">
<path d="M38.3333 0H6.66667C5.85167 0 5.15667 0.589166 5.0225 1.3925L3.58833 10H1.66667C0.746667 10 0 10.7467 0 11.6667V20C0 20.92 0.746667 21.6667 1.66667 21.6667H5.29167C5.98 23.605 7.8275 25 10 25C12.1725 25 14.02 23.605 14.7083 21.6667H25.2917C25.9808 23.605 27.8283 25 30 25C32.1717 25 34.0192 23.605 34.7083 21.6667H38.3333C39.2533 21.6667 40 20.92 40 20V1.66667C40 0.746667 39.2533 0 38.3333 0ZM11.6667 3.33333V10H6.9675L8.07833 3.33333H11.6667ZM10 21.6667C9.08083 21.6667 8.33333 20.9192 8.33333 20C8.33333 19.0808 9.08083 18.3333 10 18.3333C10.9183 18.3333 11.6658 19.08 11.6667 19.9983C11.6667 19.9983 11.6667 19.9992 11.6667 20C11.6667 20.0008 11.6667 20.0017 11.6667 20.0017C11.6658 20.92 10.9183 21.6667 10 21.6667ZM30 21.6667C29.0808 21.6667 28.3333 20.9192 28.3333 20C28.3333 19.0808 29.0808 18.3333 30 18.3333C30.9192 18.3333 31.6667 19.0808 31.6667 20C31.6667 20.9192 30.9192 21.6667 30 21.6667ZM36.6667 18.3333H34.7083C34.0192 16.395 32.1717 15 30 15C27.8283 15 25.9808 16.395 25.2917 18.3333H14.7083C14.02 16.395 12.1725 15 10 15C7.8275 15 5.98 16.395 5.29167 18.3333H3.33333V13.3333H13.3333C14.2533 13.3333 15 12.5867 15 11.6667V3.33333H36.6667V18.3333Z" fill="#2F3037"/>
</svg>
